<svg xmlns="http://www.w3.org/2000/svg" xml:space="preserve" width="64" height="64"><path fill="rgb(252 165 165)" d="M8 8h48v48H8z"/><path fill="rgb(248 113 113)" d="M13 13h38v38H13z"/><path fill="#FFF" d="M17 17h30v30H17z"/><path fill="#3a3a3a" d="M16 48h32V16H16v32zm2-30h28v28H18V18zm-4 34h36a2 2 0 0 0 2-2V14a2 2 0 0 0-2-2H14a2 2 0 0 0-2 2v36a2 2 0 0 0 2 2zm0-38h36v36H14V14zm49 11a1 1 0 1 0 0-2h-6v-6h6a1 1 0 1 0 0-2h-6V9a2 2 0 0 0-2-2h-6V1a1 1 0 1 0-2 0v6h-6V1a1 1 0 1 0-2 0v6h-6V1a1 1 0 1 0-2 0v6h-6V1a1 1 0 1 0-2 0v6h-6V1a1 1 0 1 0-2 0v6H9a2 2 0 0 0-2 2v6H1a1 1 0 1 0 0 2h6v6H1a1 1 0 1 0 0 2h6v6H1a1 1 0 1 0 0 2h6v6H1a1 1 0 1 0 0 2h6v6H1a1 1 0 1 0 0 2h6v6a2 2 0 0 0 2 2h6v6a1 1 0 1 0 2 0v-6h6v6a1 1 0 1 0 2 0v-6h6v6a1 1 0 1 0 2 0v-6h6v6a1 1 0 1 0 2 0v-6h6v6a1 1 0 1 0 2 0v-6h6a2 2 0 0 0 2-2v-6h6a1 1 0 1 0 0-2h-6v-6h6a1 1 0 1 0 0-2h-6v-6h6a1 1 0 1 0 0-2h-6v-6h6zm-8 30H9V9h46v46zM27 28h10a1 1 0 1 0 0-2H27a1 1 0 1 0 0 2zm14 9H23a1 1 0 1 0 0 2h18a1 1 0 1 0 0-2zm0-4H23a1 1 0 1 0 0 2h18a1 1 0 1 0 0-2z"/></svg>