<svg width="90" height="36" viewBox="0 0 90 36" fill="none" xmlns="http://www.w3.org/2000/svg">
<path fill-rule="evenodd" clip-rule="evenodd" d="M15.1439 26.2195C13.3627 26.5328 11.3166 25.0193 11.0045 23.2586C10.728 21.6741 10.3673 20.1054 9.92392 18.5592C9.03361 19.7463 8.51127 20.7785 7.98892 22.2464C7.335 24.0834 6.19006 25.6043 4.16506 25.9478C3.40291 26.0771 2.65443 26.0133 1.89684 25.9005L0 25.6168L0.53943 23.777C2.39981 17.4234 4.66234 10.6415 7.85165 4.82854C8.56139 3.53721 10.0265 2.44012 11.5553 3.0536C13.0107 3.63803 13.2807 5.24664 13.0153 6.61942C12.9754 6.8279 12.9309 7.03638 12.8842 7.24259C14.8671 5.52575 17.014 4.02309 19.4309 2.93455C20.6083 2.40423 21.9782 2.50164 22.8315 3.56113C23.7976 4.76246 23.5236 6.55164 22.3542 7.51259C21.8401 7.93159 21.336 8.36272 20.8424 8.80562C20.2067 9.40259 21.1284 9.64923 21.8193 9.21461C22.8133 8.66436 23.887 8.28157 24.7363 8.08562C26.7642 7.61626 29.0159 7.72676 30.6866 9.01638C30.8091 8.64613 30.9315 8.27816 31.0534 7.91303C31.504 6.56132 31.9665 5.21303 32.4279 3.86417L32.8198 2.71809L34.0308 2.7329C36.2034 2.75967 38.377 2.86562 40.5507 2.83885C43.1596 2.80809 46.8946 3.17265 47.4471 6.35911C47.5508 6.95778 47.5923 7.52683 47.5758 8.06967C48.262 7.9316 48.975 8.06383 49.5661 8.43879C50.6239 9.09613 50.9958 10.2963 50.8266 11.476C50.6051 12.6107 51.492 12.5452 51.8149 11.4999C52.2 10.6045 52.6648 9.78309 53.2344 9.24366C54.2484 8.28271 55.7504 7.65556 57.0384 8.52024C57.0908 8.55499 57.1415 8.59202 57.1887 8.63018C57.6436 7.68898 58.1219 6.75926 58.623 5.84189C59.5743 4.10398 61.4427 2.47828 63.5559 3.24043C65.3184 3.87442 65.9278 5.75873 65.8128 7.47841C65.7495 8.42638 65.6903 9.37462 65.6351 10.3231C66.6718 8.64499 67.688 6.95322 68.7139 5.26885C69.0522 4.71404 69.5142 4.23442 70.0354 3.8505C72.0581 2.35695 74.5018 2.52556 75.4935 4.1279C76.6623 2.7779 78.9089 2.47316 80.2743 3.72803C81.1897 4.56879 81.356 5.79347 80.9915 6.93955C80.2373 9.31259 79.4176 11.8104 78.4037 14.1976C79.143 14.3645 80.0425 14.7844 80.9174 15.2999C81.4528 14.7359 82.2634 14.5525 83.066 14.573C84.7059 14.6158 87.7153 16.6744 88.8477 17.8654C89.4104 18.4573 89.7346 19.204 89.6594 20.0289C89.4668 22.1319 87.0294 23.1048 85.402 23.9251C83.9814 24.6428 82.5135 25.483 81.0319 26.048C80.6907 26.1814 80.3228 26.2323 79.9582 26.1967C80.3541 26.7663 80.5865 27.4556 80.5865 28.1978C80.5865 30.9627 78.3245 33.2264 75.5578 33.2264H17.2487C15.312 33.2264 13.729 31.6417 13.729 29.7073C13.7289 28.405 14.2365 27.1535 15.1439 26.2195Z" fill="white"/>
<path fill-rule="evenodd" clip-rule="evenodd" d="M71.317 20.8339C72.3833 19.8199 74.1429 20.7809 73.7162 21.7669C73.637 22.9403 72.8629 23.6335 71.8496 24.0602C71.1563 24.247 70.4358 24.5666 69.9562 23.9542C69.6645 22.8862 70.5178 21.6592 71.317 20.8339ZM52.8641 24.6195C54.892 18.3799 56.8913 12.1392 60.0909 6.64689C61.6374 3.6336 64.3574 4.35303 64.1443 7.36632C64.0105 9.47334 63.9045 11.6066 63.7707 13.713C63.7177 14.9138 64.7846 14.7532 65.3434 13.9266C66.944 11.3138 68.5435 8.72714 70.143 6.1405C71.2629 4.27385 75.0759 3.44676 74.1696 6.67309C73.1825 12.2463 71.37 17.5266 68.9701 22.6732C68.4375 24.2459 66.3835 24.8326 66.7031 22.9921C67.4249 20.2149 68.1626 17.4417 68.916 14.6728C69.3159 12.9925 68.2228 13.8725 67.2094 15.8189C65.9295 18.1122 64.9697 20.2192 63.3958 22.5923C61.5024 25.4187 59.662 25.3128 59.7161 22.2186C59.85 20.2722 60.0094 18.3258 60.1695 16.3794C60.3563 14.2462 59.8488 13.8987 58.9693 16.1926C56.4117 23.8204 54.5707 24.9135 52.8641 24.6195ZM35.5317 15.7671C34.9991 16.2735 34.5987 17.6867 34.3048 19.9264C34.3048 20.6738 34.5713 20.9928 35.0783 21.0725C35.9054 21.0993 36.9717 21.1523 37.7726 21.0993C41.5321 20.9654 43.319 16.1128 39.6922 15.8189C38.1975 15.7933 37.0247 15.7933 35.5317 15.7671ZM38.4653 7.90062C37.8518 7.90062 37.2383 10.0601 37.1853 11.393C37.0515 12.4599 38.1178 12.326 38.8919 12.3528C41.5048 12.4325 42.6788 11.5525 43.4774 10.0857C44.1176 8.59214 43.7445 7.87271 42.0374 7.87271C40.8383 7.87385 39.6643 7.90005 38.4653 7.90005V7.90062ZM34.012 4.40714C31.9858 10.3272 29.9586 16.7013 29.185 21.8734C28.9714 24.4065 29.7717 24.6731 31.3712 24.6731C32.9439 24.6469 34.544 24.6201 36.1441 24.6201C38.2773 24.4601 40.2767 23.58 42.0374 21.5539C42.3307 21.2349 42.5979 21.367 42.5705 21.6068C42.5705 23.9269 44.5961 26.3535 48.5971 23.4473C49.4766 22.9944 49.7164 23.0474 49.7426 23.5538C49.7694 23.8739 49.6367 24.2464 49.5296 24.5404C51.7425 24.7272 54.0096 20.1401 56.4356 11.1543C56.5695 9.79404 55.6621 9.2341 54.3822 10.4611C52.728 12.007 52.0353 18.0347 50.4079 20.0609C48.1676 23.3664 46.0076 21.4741 46.4343 19.9544C47.3673 15.7939 48.4604 15.0744 49.1548 11.3155C49.4755 9.44828 47.5279 9.10252 46.3551 10.9151C45.6351 12.2218 45.0751 13.6356 44.6747 15.0756C44.1421 16.4352 43.368 16.3025 43.155 15.529C43.0479 14.8358 42.5944 14.302 42.0351 13.8224C44.4617 12.1158 46.2486 10.0356 45.7957 6.6486C45.4482 5.02176 43.5286 4.40942 40.5694 4.51537C38.3844 4.48689 36.1982 4.43334 34.012 4.40714ZM25.6921 17.9003C25.1589 17.7135 23.8249 18.2478 22.9454 18.8333C21.3989 20.0056 21.5048 20.6191 21.7184 21.4194C22.0653 22.2727 23.7987 22.0597 25.0786 20.7C26.3044 19.26 26.4115 18.2199 25.6921 17.9003ZM23.2644 13.8999C22.9175 14.674 20.3308 13.9266 20.5986 12.8597C20.7324 10.8325 27.0512 8.00657 30.0115 10.6473C32.065 12.9674 27.3457 19.3141 27.3987 23.7663C27.4249 24.2197 27.1059 24.4327 26.5716 24.4595H24.8912C24.3592 24.4857 23.9587 24.112 23.6119 23.5794C22.1451 24.9123 17.7989 25.499 17.2913 23.1528C16.8909 21.1534 16.8379 19.526 19.5846 17.4195C21.1853 16.3259 23.1584 15.979 25.7451 15.4999C26.8382 15.0459 27.3719 13.3661 26.3056 12.9127C25.0524 12.3271 24.1182 12.9406 23.2644 13.8999ZM2.14514 24.247C4.14451 17.4207 6.35862 10.7276 9.31837 5.6341C10.1455 4.03347 11.7991 4.16733 11.3724 6.30056C11.1321 7.56074 10.7931 8.80007 10.3585 10.0071C10.0925 10.9133 10.7857 11.5268 12.0121 10.3278C14.9456 7.4472 17.5591 5.76796 20.1189 4.46183C21.7458 3.82157 22.1724 5.44898 21.2924 6.22138C17.6126 9.04784 14.4398 12.2212 15.693 18.0342C15.9596 19.7145 16.1464 21.3676 15.9596 23.048C15.3461 25.8476 12.8392 24.194 12.6535 22.9682C12.2798 21.1283 11.9062 19.2623 11.3468 17.4748C10.9201 16.061 9.93299 15.7682 8.81369 17.2612C7.88065 18.4078 7.05356 19.4212 6.41388 21.6883C5.21198 24.4606 3.7452 24.4868 2.14514 24.247ZM72.5439 18.5138C72.491 19.4468 73.2907 19.7407 74.3297 18.3799C76.2499 14.993 77.9035 10.9401 79.397 6.43328C80.0367 4.32683 77.2632 4.06024 76.5706 5.50081C75.1568 8.00657 73.8501 12.7538 72.5439 18.5138Z" fill="#175FAD"/>
<path d="M75.5886 31.4573L76.0557 29.7325C76.1184 29.5052 76.1987 29.2939 76.2967 29.1002C76.3935 28.9054 76.5046 28.7357 76.6287 28.591C76.7546 28.4457 76.8851 28.3312 77.0246 28.2503C77.1835 28.1544 77.3693 28.1132 77.5538 28.133C77.5829 28.1353 77.6091 28.1398 77.6335 28.1433L77.8181 27.4825C77.7902 27.4791 77.7577 27.4745 77.7247 27.4722C77.5194 27.4532 77.313 27.4942 77.1306 27.5902C76.9701 27.6763 76.8252 27.7885 76.7017 27.9222C76.5671 28.0678 76.4503 28.2288 76.3536 28.4019H76.3291C76.3661 28.2526 76.3986 28.1085 76.4271 27.969C76.4584 27.83 76.4858 27.6927 76.5125 27.5554H75.9241C75.8979 27.6773 75.8689 27.8134 75.8381 27.9633C75.8068 28.1125 75.772 28.2709 75.7339 28.436C75.6963 28.6035 75.6536 28.7704 75.6074 28.9413L74.9199 31.4562H75.5886V31.4573ZM72.2239 29.5388C72.2934 29.3081 72.3822 29.0991 72.4905 28.914C72.5998 28.7283 72.7223 28.5688 72.8573 28.4355C72.9812 28.3112 73.1245 28.2079 73.2817 28.1296C73.4292 28.0578 73.5756 28.0225 73.722 28.0225C73.8547 28.0236 73.9652 28.0487 74.0552 28.0983C74.1463 28.1478 74.2164 28.2173 74.2682 28.3033C74.3206 28.3899 74.3548 28.489 74.3736 28.599C74.3907 28.7106 74.3941 28.8262 74.3839 28.9481C74.3691 29.1247 74.3298 29.307 74.266 29.4984C74.2016 29.6886 74.1173 29.8743 74.0113 30.0543C73.9068 30.2319 73.7805 30.3957 73.6354 30.5419C73.4958 30.684 73.3333 30.8015 73.1546 30.8894C72.9792 30.9748 72.7901 31.0193 72.5884 31.0204C72.3834 31.0204 72.2296 30.9709 72.1316 30.874C72.0336 30.776 71.992 30.6348 72.0074 30.4485C72.0143 30.2786 72.0446 30.1105 72.0974 29.949L72.2239 29.5388ZM72.6323 25.7338L71.4412 29.933C71.4116 30.0329 71.3861 30.134 71.3649 30.236C71.3426 30.338 71.3268 30.4413 71.3176 30.5453C71.3005 30.7829 71.3358 30.9765 71.427 31.1229C71.5192 31.271 71.6531 31.3781 71.8274 31.4459C72.0017 31.5126 72.2034 31.5462 72.4352 31.545C72.6955 31.5439 72.9399 31.5052 73.1672 31.43C73.3906 31.3572 73.6023 31.2522 73.7955 31.1184C73.9857 30.9857 74.1566 30.8324 74.3098 30.657C74.6062 30.3152 74.8288 29.9159 74.9637 29.4841C75.0287 29.2757 75.0697 29.0706 75.0874 28.869C75.1029 28.6979 75.0962 28.5256 75.0674 28.3563C75.0407 28.1974 74.9845 28.045 74.9017 27.9069C74.8188 27.7727 74.7018 27.6628 74.5627 27.5884C74.4198 27.5087 74.242 27.4677 74.0284 27.4665C73.852 27.4673 73.677 27.4977 73.5106 27.5565C73.3344 27.6199 73.1691 27.7105 73.0208 27.8248C72.8582 27.9509 72.7139 28.0989 72.5918 28.2646H72.5759L73.3044 25.7332L72.6323 25.7338ZM70.1909 31.5382C70.286 31.5382 70.3794 31.5135 70.462 31.4664C70.5418 31.4197 70.605 31.3559 70.6557 31.2762C70.7053 31.1964 70.7343 31.107 70.7446 31.0067C70.7536 30.9228 70.7412 30.838 70.7087 30.7601C70.6808 30.6892 70.6311 30.629 70.5668 30.5881C70.4966 30.5447 70.4153 30.5223 70.3327 30.5237C70.2373 30.5233 70.1436 30.5489 70.0616 30.5978C69.9825 30.6459 69.9161 30.7123 69.8679 30.7914C69.8184 30.8742 69.7883 30.9671 69.7796 31.0631C69.7711 31.1531 69.7842 31.234 69.8149 31.3052C69.8431 31.3744 69.8913 31.4335 69.9534 31.475C70.0217 31.518 70.101 31.5403 70.1818 31.5393H70.1909V31.5382ZM64.3494 31.4573L64.8763 29.4978C64.9339 29.2882 65.0136 29.0945 65.1161 28.9185C65.2124 28.7486 65.3289 28.591 65.463 28.4491C65.5912 28.3164 65.7239 28.2116 65.8589 28.1376C65.9945 28.0629 66.1261 28.0248 66.2497 28.0236C66.412 28.0248 66.5322 28.0578 66.6103 28.1228C66.6889 28.1871 66.7396 28.2703 66.7595 28.3717C66.78 28.4742 66.7857 28.5807 66.7743 28.6935C66.7686 28.7681 66.7572 28.8456 66.743 28.9214C66.7276 29.0049 66.7088 29.0877 66.6866 29.1697L66.0594 31.4584H66.7037L67.2425 29.4591C67.3023 29.2398 67.3832 29.0438 67.4846 28.8678C67.5849 28.6912 67.6982 28.5403 67.8224 28.4144C67.9472 28.2874 68.0759 28.1928 68.2086 28.125C68.3402 28.0578 68.4672 28.0225 68.5891 28.0225C68.7344 28.0225 68.8466 28.0498 68.9298 28.1062C69.0109 28.1625 69.0699 28.2453 69.0967 28.3403C69.1257 28.4412 69.1348 28.5608 69.1223 28.6992C69.1145 28.7853 69.1017 28.8709 69.0841 28.9555C69.0665 29.0397 69.0461 29.1233 69.0232 29.2062L68.4154 31.4562H69.0676L69.6965 29.1515C69.7375 29.0005 69.7694 28.8472 69.7922 28.6924C69.8036 28.6183 69.8115 28.5517 69.8172 28.4907C69.8338 28.3325 69.8185 28.1725 69.7722 28.0202C69.7355 27.9055 69.6727 27.8009 69.5887 27.7146C69.5047 27.6283 69.4018 27.5627 69.288 27.5229C69.1802 27.4852 69.0668 27.466 68.9525 27.466C68.6641 27.4693 68.3816 27.5479 68.1329 27.6938C67.8765 27.8402 67.6504 28.0544 67.4522 28.3375C67.4583 28.1849 67.4309 28.0329 67.3718 27.8921C67.3154 27.7632 67.2202 27.6551 67.0996 27.5828C66.9737 27.507 66.8136 27.4677 66.6154 27.4665C66.3556 27.4665 66.1022 27.5349 65.8555 27.6716C65.6094 27.8089 65.3839 28.0145 65.176 28.2885H65.152L65.3178 27.5554H64.7299C64.6496 27.9368 64.5588 28.3159 64.4577 28.6924L63.7012 31.4573H64.3494ZM61.5942 31.0147C61.4257 31.0188 61.2604 30.9686 61.1225 30.8717C60.9921 30.7734 60.8938 30.6386 60.84 30.4844C60.7781 30.3021 60.7558 30.1087 60.7745 29.9171C60.7893 29.7371 60.8263 29.5559 60.885 29.3736C60.9431 29.1925 61.02 29.0188 61.1134 28.8553C61.208 28.6901 61.3179 28.5437 61.4421 28.4155C61.5668 28.2862 61.7053 28.186 61.8539 28.1102C62.0023 28.0364 62.1656 27.9976 62.3313 27.9969C62.5056 27.998 62.6497 28.035 62.7602 28.1028C62.873 28.1723 62.9573 28.2623 63.0188 28.3717C63.0775 28.4822 63.1179 28.599 63.1384 28.7248C63.1578 28.849 63.1629 28.9692 63.151 29.0843C63.1348 29.2715 63.0966 29.4562 63.037 29.6345C62.978 29.8169 62.8987 29.9921 62.8006 30.1569C62.7038 30.3203 62.5933 30.4667 62.4663 30.596C62.3415 30.7242 62.2054 30.8239 62.059 30.8979C61.9178 30.9708 61.7616 31.0096 61.6027 31.0113H61.5942V31.0147ZM61.4768 31.5462C61.7299 31.5463 61.9807 31.499 62.2162 31.4066C62.4452 31.3155 62.6565 31.189 62.8456 31.0295C63.0348 30.8695 63.2005 30.6849 63.3435 30.4764C63.4865 30.2674 63.5987 30.0446 63.6853 29.8083C63.7701 29.5719 63.8248 29.3309 63.8453 29.0877C63.8636 28.8864 63.8495 28.6836 63.8037 28.4867C63.7622 28.2997 63.6825 28.1232 63.5696 27.9684C63.4534 27.8118 63.3002 27.6866 63.1236 27.6038C62.9379 27.515 62.7129 27.4671 62.4498 27.4665C62.2031 27.4668 61.9586 27.5118 61.728 27.5993C61.5008 27.6873 61.2891 27.8112 61.1009 27.9661C60.9106 28.1216 60.742 28.305 60.5979 28.5124C60.4527 28.7209 60.3376 28.9453 60.2487 29.1879C60.1601 29.4305 60.1038 29.6837 60.0813 29.941C60.0618 30.1492 60.0782 30.3592 60.1297 30.5619C60.181 30.7555 60.2647 30.9264 60.3826 31.0722C60.4988 31.2203 60.6498 31.3343 60.832 31.4169C61.0132 31.5 61.2256 31.5439 61.47 31.545H61.4768V31.5462ZM59.6444 30.7726C59.5652 30.8094 59.4845 30.8424 59.4023 30.8717C59.3111 30.9053 59.2075 30.9315 59.0947 30.9549C58.9813 30.9777 58.8583 30.9879 58.7233 30.9891C58.5108 30.9879 58.3354 30.9458 58.201 30.8592C58.0648 30.7742 57.9608 30.6464 57.9053 30.4958C57.8467 30.3391 57.8261 30.154 57.8432 29.941C57.858 29.7553 57.8996 29.5719 57.9634 29.3884C58.0278 29.2056 58.1144 29.0324 58.2215 28.8684C58.3297 28.7049 58.4556 28.5596 58.6008 28.4326C58.7445 28.3065 58.9081 28.2053 59.085 28.133C59.3864 28.0114 59.7187 27.9884 60.034 28.0675C60.1417 28.0948 60.2317 28.1296 60.3051 28.1666L60.5427 27.6426C60.4866 27.6102 60.4269 27.5844 60.3649 27.5657C60.2737 27.5357 60.1804 27.5123 60.0858 27.4956C59.9727 27.4768 59.8582 27.4668 59.7435 27.4654C59.4712 27.4656 59.2009 27.5124 58.9443 27.6038C58.6931 27.695 58.4636 27.8226 58.2539 27.9843C58.044 28.1466 57.8584 28.3381 57.7025 28.5528C57.544 28.7671 57.4159 29.0023 57.322 29.2517C57.2252 29.5029 57.1665 29.7627 57.142 30.0298C57.1249 30.24 57.1386 30.4343 57.1859 30.616C57.232 30.7965 57.3118 30.9572 57.4246 31.0956C57.5368 31.2323 57.6832 31.3405 57.8655 31.4197C58.0472 31.4966 58.2642 31.5359 58.5154 31.5382C58.6908 31.5371 58.852 31.5234 59.0001 31.4989C59.23 31.4616 59.4538 31.3933 59.6655 31.2961L59.6444 30.7726ZM56.0615 31.5382C56.1566 31.5383 56.25 31.5136 56.3326 31.4664C56.4116 31.4197 56.4781 31.3544 56.5263 31.2762C56.5758 31.1964 56.6049 31.107 56.6151 31.0067C56.6241 30.9228 56.6117 30.838 56.5793 30.7601C56.5511 30.6893 56.5015 30.6292 56.4374 30.5881C56.3673 30.5448 56.2863 30.5225 56.2039 30.5237C56.1084 30.5232 56.0147 30.5488 55.9327 30.5978C55.853 30.6456 55.7886 30.71 55.7391 30.7914C55.6894 30.8742 55.6591 30.967 55.6502 31.0631C55.6422 31.1531 55.6548 31.234 55.6855 31.3052C55.7136 31.3747 55.7623 31.434 55.8251 31.475C55.8934 31.5181 55.9727 31.5404 56.0535 31.5393H56.0615V31.5382ZM50.3858 31.4573L50.866 29.6841C50.9343 29.4232 51.0255 29.1953 51.1411 28.9977C51.255 28.8006 51.3803 28.644 51.5159 28.5329C51.6526 28.4212 51.787 28.3637 51.9198 28.362C52.0143 28.3637 52.0855 28.3853 52.1362 28.4269C52.1883 28.4713 52.224 28.5319 52.2376 28.599C52.2541 28.6713 52.2598 28.7533 52.2507 28.8456C52.245 28.914 52.2336 28.9863 52.2182 29.0603C52.2023 29.135 52.1841 29.2124 52.1653 29.2882L51.5729 31.4573H52.6933L53.1729 29.6761C53.2481 29.4084 53.3415 29.1754 53.4543 28.9795C53.5665 28.7835 53.6879 28.6314 53.8189 28.5238C53.9493 28.4167 54.0792 28.3626 54.2096 28.3614C54.2985 28.3614 54.3691 28.3808 54.4244 28.4212C54.4773 28.4605 54.5155 28.5158 54.5383 28.5853C54.5594 28.6553 54.5662 28.7351 54.5582 28.8285C54.5509 28.9083 54.539 28.9876 54.5224 29.066C54.505 29.1459 54.4851 29.2251 54.4625 29.3036L53.8872 31.4567H55.0156L55.6348 29.1669C55.6513 29.0985 55.669 29.0222 55.6844 28.9379C55.7009 28.8547 55.7157 28.7727 55.7299 28.6929C55.7436 28.6132 55.7516 28.546 55.7561 28.4907C55.7744 28.2657 55.7516 28.0749 55.6906 27.9171C55.628 27.7582 55.5289 27.638 55.3927 27.5543C55.2577 27.47 55.0897 27.4272 54.8863 27.4261C54.7149 27.4261 54.5446 27.4529 54.376 27.5081C54.2085 27.5622 54.0473 27.6448 53.8929 27.7548C53.7302 27.8744 53.5849 28.0161 53.4611 28.1757C53.4592 27.9881 53.3873 27.8079 53.2595 27.6705C53.1831 27.593 53.0911 27.5328 52.9895 27.4939C52.8612 27.4464 52.7253 27.4231 52.5885 27.425C52.3308 27.4244 52.0766 27.4849 51.8468 27.6015C51.6076 27.7212 51.3843 27.9057 51.1804 28.1598H51.1644L51.2909 27.515H50.2918C50.2536 27.6927 50.2103 27.8875 50.1608 28.1005C50.1095 28.3141 50.0525 28.5471 49.983 28.796L49.2682 31.4562H50.3863L50.3858 31.4573ZM48.6143 27.515L48.1141 29.3452C48.0429 29.6072 47.9484 29.8316 47.835 30.0184C47.7199 30.2064 47.5958 30.3505 47.4608 30.4508C47.3258 30.5499 47.1908 30.6017 47.058 30.6029C46.9612 30.6017 46.886 30.5812 46.8319 30.5402C46.778 30.5002 46.7384 30.4439 46.7191 30.3796C46.699 30.3052 46.6927 30.2278 46.7003 30.1512C46.706 30.0771 46.7191 29.9951 46.7374 29.904C46.7561 29.8145 46.7767 29.7211 46.8011 29.6277L47.381 27.5144H46.219L45.6152 29.716C45.5753 29.8533 45.5446 29.9826 45.5201 30.1033C45.4992 30.2157 45.4834 30.329 45.4728 30.4428C45.4534 30.6934 45.4768 30.8991 45.5434 31.062C45.6101 31.2255 45.7155 31.3468 45.8596 31.4277C46.0048 31.5074 46.182 31.5473 46.395 31.5473C46.6342 31.5484 46.8741 31.4909 47.1139 31.3747C47.3548 31.2579 47.5867 31.0711 47.8117 30.8142L47.8265 30.8222L47.7011 31.4584H48.7248L48.8677 30.8729C48.9207 30.6593 48.9811 30.4269 49.05 30.1762L49.7734 27.5161H48.6143V27.515ZM42.7267 29.4745C42.7939 29.2443 42.8827 29.0484 42.9955 28.8821C43.0933 28.7323 43.2199 28.6035 43.368 28.5033C43.5065 28.4144 43.6449 28.3705 43.7867 28.3694C43.9041 28.3705 43.9986 28.4007 44.0704 28.4594C44.1439 28.5212 44.1957 28.6048 44.2185 28.6981C44.2481 28.8006 44.2561 28.9162 44.2441 29.0461C44.2327 29.1845 44.2014 29.3286 44.153 29.4773C44.1038 29.6289 44.0393 29.7751 43.9605 29.9136C43.8824 30.0543 43.789 30.1814 43.6853 30.2941C43.587 30.4025 43.4716 30.4939 43.3436 30.5647C43.2241 30.6295 43.0909 30.6646 42.9551 30.6672C42.8167 30.6672 42.7141 30.6296 42.6441 30.5556C42.5734 30.4815 42.5421 30.3733 42.5495 30.2315C42.5518 30.1512 42.5609 30.0748 42.5768 30.0025C42.5911 29.9296 42.6082 29.8618 42.6264 29.7974L42.7267 29.4745ZM42.6139 25.7332L41.4815 29.7245C41.4473 29.8407 41.416 29.9598 41.3892 30.0805C41.3618 30.1994 41.3428 30.3201 41.3322 30.4417C41.3026 30.7948 41.3972 31.0665 41.6153 31.2568C41.8329 31.4482 42.1758 31.5428 42.6429 31.5462C42.9719 31.5483 43.2988 31.4934 43.609 31.3838C43.8886 31.2832 44.1491 31.1357 44.3791 30.9475C44.6018 30.7635 44.7921 30.5545 44.9487 30.3209C45.2517 29.8688 45.4361 29.3478 45.4848 28.8057C45.501 28.6344 45.4914 28.4616 45.4563 28.2931C45.4253 28.1362 45.3646 27.9868 45.2774 27.8528C45.1899 27.7224 45.071 27.6162 44.9317 27.544C44.7875 27.4677 44.6132 27.4284 44.4076 27.4261C44.0884 27.429 43.7762 27.5205 43.5059 27.6904C43.3726 27.7742 43.2509 27.8754 43.1442 27.9912H43.1282L43.7856 25.7332H42.6139ZM39.9258 29.2478C39.8381 29.5696 39.7333 29.8305 39.6108 30.031C39.4901 30.2315 39.3642 30.379 39.2326 30.4713C39.1016 30.5659 38.978 30.6109 38.8606 30.6097C38.753 30.6086 38.667 30.5824 38.6009 30.5271C38.5313 30.4677 38.4824 30.3877 38.4613 30.2987C38.4346 30.1869 38.4273 30.0713 38.4397 29.9569C38.4522 29.81 38.4853 29.6573 38.5411 29.5029C38.5952 29.3491 38.6664 29.201 38.7553 29.0581C38.8441 28.9145 38.9455 28.7881 39.0629 28.6753C39.1785 28.5608 39.3044 28.4719 39.4405 28.4053C39.5736 28.3404 39.7196 28.3061 39.8677 28.305C39.9281 28.305 39.9856 28.3096 40.0415 28.3141C40.0956 28.321 40.1451 28.329 40.189 28.3369L39.9258 29.2483V29.2478ZM40.651 31.4579C40.6584 31.3326 40.6709 31.1959 40.6914 31.0438C40.7113 30.8934 40.7353 30.7367 40.7643 30.5767C40.8156 30.2761 40.8814 29.9783 40.9614 29.6841L41.5458 27.6198C41.424 27.5817 41.3005 27.5493 41.1756 27.5229C40.8761 27.4595 40.5709 27.427 40.2648 27.4261C39.9088 27.4231 39.5546 27.477 39.2155 27.5856C38.6362 27.771 38.1323 28.1386 37.7789 28.6337C37.6115 28.8672 37.481 29.1156 37.3865 29.3799C37.2941 29.6366 37.2357 29.9044 37.2127 30.1762C37.1905 30.4519 37.2218 30.6917 37.3039 30.8957C37.3853 31.1007 37.5112 31.2602 37.6798 31.3741C37.849 31.4875 38.0518 31.545 38.2893 31.5462C38.4443 31.5473 38.6026 31.5211 38.7621 31.4653C38.9363 31.4028 39.0981 31.31 39.24 31.1913C39.3967 31.0631 39.5442 30.8911 39.6849 30.6758H39.7008C39.6815 30.8165 39.661 30.9538 39.6399 31.0836C39.6194 31.2152 39.6006 31.3411 39.5869 31.4573L40.651 31.4579ZM34.5179 31.4579L34.8659 30.1916L35.3364 29.7718L35.8889 31.4562H37.1877L36.2848 29.1418L38.0985 27.5138H36.663L35.5551 28.7157C35.4925 28.7835 35.4293 28.8559 35.3626 28.9299C35.2965 29.0045 35.2299 29.082 35.1632 29.1578H35.1467L36.0877 25.7321H34.9348L33.3661 31.4567H34.5167L34.5179 31.4579ZM32.5812 31.5382C32.6764 31.5384 32.7701 31.5137 32.8529 31.4664C32.9319 31.4196 32.9984 31.3544 33.0465 31.2762C33.0961 31.1964 33.1246 31.107 33.1348 31.0067C33.1439 30.9229 33.1318 30.838 33.0995 30.7601C33.0712 30.6893 33.0214 30.6291 32.9571 30.5881C32.887 30.5448 32.8059 30.5225 32.7236 30.5237C32.6281 30.5232 32.5344 30.5488 32.4524 30.5978C32.3727 30.6456 32.3083 30.71 32.2587 30.7914C32.2091 30.8742 32.1788 30.967 32.1699 31.0631C32.163 31.1531 32.1744 31.234 32.2058 31.3052C32.2338 31.3744 32.282 31.4336 32.3442 31.475C32.4123 31.5179 32.4915 31.5403 32.572 31.5393H32.5817L32.5812 31.5382ZM27.8168 27.5554L27.8527 31.4573H28.473L29.7735 29.3127C29.843 29.1988 29.9045 29.0865 29.9615 28.9795C30.0196 28.8724 30.0748 28.763 30.1312 28.6519C30.1882 28.5403 30.2474 28.4224 30.3101 28.2971H30.326C30.2953 28.6429 30.2849 28.9902 30.2947 29.3372L30.3744 31.4573H30.9953L33.2493 27.5554H32.5726L31.3268 29.8054C31.2323 29.9917 31.1491 30.1671 31.0762 30.3249C31.005 30.4855 30.9372 30.6422 30.874 30.7965H30.8575C30.8683 30.6678 30.8763 30.5197 30.8774 30.3517C30.8808 30.1831 30.8808 29.994 30.8786 29.7809L30.8233 27.5554H30.2349L28.8917 29.8214C28.7784 30.0162 28.6781 30.195 28.5938 30.3597C28.5078 30.5248 28.4372 30.6701 28.383 30.7965H28.3586C28.3699 30.6929 28.3813 30.5926 28.391 30.4935C28.4001 30.3944 28.4081 30.2839 28.4167 30.166C28.4235 30.0475 28.428 29.9096 28.4315 29.7502L28.4787 27.5565H27.8168V27.5554ZM22.4123 27.5554L22.4476 31.4573H23.0685L24.3689 29.3127C24.4384 29.1988 24.4994 29.0865 24.5569 28.9795C24.6144 28.8724 24.6697 28.763 24.7267 28.6519C24.783 28.5403 24.8429 28.4224 24.9049 28.2971H24.9215C24.8924 28.643 24.882 28.9902 24.8901 29.3372L24.9699 31.4573H25.5902L27.8448 27.5554H27.1675L25.9234 29.8054C25.8289 29.9917 25.7457 30.1671 25.6728 30.3249C25.6016 30.4855 25.5338 30.6422 25.47 30.7965H25.4541C25.4643 30.6678 25.4711 30.5197 25.4734 30.3517C25.4774 30.1831 25.4774 29.994 25.4746 29.7809L25.4193 27.5554H24.8315L23.4877 29.8214C23.3749 30.0162 23.2747 30.195 23.1904 30.3597C23.1038 30.5248 23.0337 30.6701 22.9796 30.7965H22.9551C22.9665 30.6929 22.9779 30.5926 22.9876 30.4935C22.9967 30.3944 23.0047 30.2839 23.0127 30.166C23.0201 30.0475 23.0241 29.9096 23.028 29.7502L23.0753 27.5565H22.4123V27.5554ZM17.0083 27.5554L17.0442 31.4573H17.6651L18.9655 29.3127C19.0344 29.1988 19.0954 29.0865 19.1535 28.9795C19.211 28.8724 19.2674 28.763 19.3227 28.6519C19.3796 28.5403 19.4394 28.4224 19.5015 28.2971H19.5175C19.5027 28.4685 19.4924 28.6405 19.4879 28.8097C19.481 28.9806 19.4822 29.1572 19.4867 29.3372L19.5665 31.4573H20.1868L22.4408 27.5554H21.7641L20.52 29.8054C20.4255 29.9917 20.3423 30.1671 20.2694 30.3249C20.1982 30.4855 20.1298 30.6422 20.0666 30.7965H20.0506C20.0609 30.6678 20.0677 30.5197 20.07 30.3517C20.0734 30.1831 20.0734 29.994 20.0711 29.7809L20.0159 27.5554H19.4275L18.0843 29.8214C17.9715 30.0162 17.8713 30.195 17.787 30.3597C17.7004 30.5248 17.6303 30.6701 17.5762 30.7965H17.5517C17.5631 30.6929 17.5745 30.5926 17.5836 30.4935C17.6063 30.2461 17.6196 29.998 17.6235 29.7496L17.6702 27.5565H17.0089V27.5554H17.0083Z" fill="#175FAD"/>
<path fill-rule="evenodd" clip-rule="evenodd" d="M57.8238 17.7129C58.0374 17.153 58.2505 16.5936 58.4373 16.0325V16.0063C58.5974 15.5535 58.811 15.0471 59.0508 14.6467C59.2906 14.2998 59.6375 13.954 60.0909 14.0599C60.5443 14.1659 60.7044 14.6467 60.7574 15.0471C60.8103 15.5005 60.7841 15.9801 60.7312 16.433L60.6514 17.6058C62.4377 17.4999 64.1984 17.2868 65.905 17.0191C66.1716 16.5395 66.4376 16.032 66.7053 15.5523C66.9981 14.9656 67.3456 14.3789 67.7722 13.8987C67.9128 13.7039 68.0835 13.5328 68.2781 13.3918C68.5446 13.2055 68.8386 13.1258 69.1313 13.2585C69.7186 13.5251 69.5848 14.2986 69.4788 14.7782V14.805L69.0522 16.4056C69.7586 16.2259 70.461 16.0303 71.1586 15.8189C72.2255 12.8056 73.052 9.73937 73.6114 6.56602V6.53925L73.6382 6.51247C73.7174 6.19349 73.878 5.47235 73.5317 5.20634C73.3186 5.0457 72.9717 5.07247 72.7313 5.10039C72.2829 5.17982 71.8561 5.35211 71.4782 5.60621C71.1586 5.81982 70.8379 6.1126 70.6511 6.4333V6.4595C69.0243 9.04615 67.4248 11.6328 65.8241 14.2189C65.4243 14.8323 64.6239 15.3923 63.9045 15.0722C63.344 14.8329 63.1851 14.2456 63.1851 13.6851C63.3184 11.5519 63.4511 9.44488 63.585 7.33842C63.6117 6.67197 63.5052 5.60507 62.7579 5.36526C62.4377 5.2314 62.0914 5.33906 61.7975 5.49912C61.2649 5.81811 60.8644 6.37918 60.5973 6.91292H60.5705C58.5974 10.3261 57.0776 14.0058 55.7703 17.7397C56.4641 17.7397 57.1574 17.7397 57.8238 17.7129ZM36.5981 11.34C36.6248 10.8598 36.7051 10.3529 36.8117 9.89944C36.9717 9.12589 37.4513 7.33956 38.4653 7.33956C39.6655 7.31279 40.8383 7.31279 42.0123 7.28659H42.0385C44.1187 7.28659 44.8382 8.40646 44.0117 10.2999L43.9849 10.3261V10.3529C43.7375 10.8142 43.4232 11.2365 43.0524 11.606C41.9325 12.7259 40.4128 12.993 38.8657 12.9389C38.7051 12.9127 38.5456 12.9127 38.3855 12.9127C37.8791 12.9127 37.3716 12.8598 36.9717 12.5123C36.651 12.1933 36.5718 11.7667 36.5981 11.34ZM53.8234 17.6867C53.9031 17.4201 54.0108 17.1541 54.1167 16.8864C54.7832 14.9668 55.3437 13.0198 55.8763 11.0734C55.8763 10.8866 55.8763 10.4599 55.7162 10.3802C55.6627 10.3272 55.5556 10.3802 55.5026 10.3802C55.236 10.4879 54.97 10.6998 54.7832 10.8866H54.7564C54.3298 11.2865 53.9829 12.1398 53.7693 12.6729C53.3962 13.6333 53.1296 14.6193 52.8368 15.6065C52.6232 16.2729 52.4363 16.9661 52.1965 17.6337C52.7303 17.6599 53.2646 17.6867 53.8234 17.6867ZM46.5704 17.2595C46.6234 17.1803 46.6501 17.1 46.6775 17.0203C46.9173 16.327 47.2106 15.6606 47.4778 14.9662C47.6984 14.4211 47.903 13.8697 48.0913 13.3126C48.3049 12.6199 48.465 11.9267 48.5977 11.2061C48.6239 10.9663 48.6506 10.5129 48.3846 10.3529C48.224 10.2463 47.9574 10.2999 47.7712 10.3791C47.3975 10.5129 47.0779 10.8587 46.8381 11.2061C46.1449 12.4593 45.585 13.819 45.2375 15.206V15.259L45.2107 15.2858C44.9447 15.9522 44.3574 16.8585 43.5041 16.6454C43.0245 16.5378 42.7306 16.1391 42.6246 15.6845L42.5979 15.6583V15.6315C42.4919 15.0448 42.1182 14.6176 41.6648 14.2456L41.0781 13.766L41.7184 13.3388C44.0914 11.6858 45.6374 9.79235 45.2375 6.72551C44.837 5.0457 41.8767 5.0457 40.5706 5.09925H40.5444C38.5182 5.07247 36.4642 5.0457 34.4375 4.99273C34.0103 6.27266 33.5836 7.5264 33.157 8.77956C32.4375 11.0204 31.7432 13.2864 31.1576 15.5535C32.3037 15.6873 33.5044 15.8463 34.6767 15.9801C34.8106 15.7403 34.9701 15.4999 35.1301 15.3399L35.2908 15.1798H35.53L39.6911 15.2596H39.7441C40.6765 15.3393 41.6107 15.7124 42.0374 16.6466C42.0641 16.6996 42.0903 16.7804 42.1171 16.8596C43.6118 17.0203 45.1048 17.1518 46.5704 17.2595ZM29.2374 15.3399C29.3981 14.887 29.5308 14.4604 29.6646 14.007C29.8777 13.2334 30.1705 11.9535 29.7176 11.2073C29.6908 11.1543 29.6379 11.1013 29.6099 11.0467C29.3969 10.8866 29.1833 10.7277 28.9703 10.62C27.9034 10.0595 26.5972 10.0595 25.4506 10.2731C24.4105 10.4861 23.2912 10.9128 22.4111 11.5001C22.0112 11.7661 21.2109 12.3801 21.1841 12.9139V12.9668L21.1579 13.0198C21.1841 13.2334 21.7179 13.4732 21.8774 13.5262C22.0642 13.5792 22.5706 13.6863 22.7568 13.606L22.7836 13.5792L22.8366 13.4994C23.8505 12.3801 25.0228 11.6858 26.5425 12.3801C26.8621 12.5134 27.1293 12.7532 27.2887 13.0996C27.6094 13.7392 27.4494 14.5134 27.0495 15.0989C27.7712 15.1798 28.4918 15.259 29.2374 15.3399ZM14.8915 14.6193C15.0003 13.1882 15.458 11.8055 16.2244 10.5921C17.3705 8.64627 19.158 7.12596 20.9443 5.7657C21.105 5.60507 21.265 5.23254 21.105 5.01836C20.9443 4.77855 20.5444 4.91241 20.3576 4.99159C19.0247 5.68482 17.7442 6.43216 16.544 7.28545C15.0505 8.29937 13.6913 9.47165 12.4114 10.7516C12.0907 11.0706 11.6914 11.3651 11.2648 11.4989C10.8649 11.6328 10.4382 11.5787 10.1187 11.3121C9.69204 10.9646 9.63906 10.3517 9.79799 9.84532V9.79235C10.2289 8.62049 10.5679 7.41685 10.8119 6.19235C10.8649 5.92577 10.9179 5.57887 10.8381 5.31228C10.8119 5.25931 10.7584 5.17842 10.7043 5.15222C10.6245 5.12545 10.4912 5.17842 10.4115 5.23197C10.1722 5.36526 9.95862 5.63184 9.82476 5.89842C8.25204 8.61836 6.99831 11.5519 5.9052 14.4843C5.58622 15.3906 5.26495 16.298 4.94482 17.2048C7.55881 15.5797 10.972 14.8323 14.8915 14.6187V14.6193ZM75.9041 13.9791C77.0234 11.446 77.9844 8.83311 78.8377 6.24646C78.9436 5.97988 78.971 5.60621 78.7312 5.39317C78.5181 5.17956 78.1444 5.15336 77.8779 5.20634C77.5589 5.25931 77.2382 5.44558 77.0775 5.76684V5.79304C76.6777 6.48627 76.3581 7.25982 76.0642 8.00602C75.6915 8.97768 75.3621 9.96543 75.077 10.9663C74.7034 12.2463 74.3576 13.5262 74.0101 14.8056C74.6504 14.5663 75.2906 14.273 75.9041 13.9791Z" fill="#175FAD"/>
<path fill-rule="evenodd" clip-rule="evenodd" d="M82.7834 18.7804C81.9301 17.8747 78.9966 15.8468 77.7976 15.7939C74.6772 15.7141 79.3173 19.2868 79.691 19.8473C80.7573 20.9409 74.3046 21.9275 74.4106 24.3803C74.4106 24.754 74.6242 24.8599 74.9979 24.7278C76.304 24.2208 78.6771 22.9415 79.5571 22.5142C80.7573 21.9013 84.3579 20.4334 82.7834 18.7804ZM87.6372 19.0202C86.8369 18.1675 84.1163 16.2735 83.0232 16.2473C80.1438 16.1675 84.437 19.4736 84.7834 19.9811C85.7438 20.9951 79.7969 21.9275 79.8767 24.1946C79.9029 24.5153 80.0897 24.6213 80.4372 24.4874C81.6374 24.0346 83.8503 22.8606 84.6506 22.4339C85.77 21.9013 89.1039 20.5399 87.6372 19.0202Z" fill="#F05223"/>
<path fill-rule="evenodd" clip-rule="evenodd" d="M77.1573 16.3265C77.1573 16.4597 77.371 16.7793 77.4501 16.859C77.6899 17.2327 78.0374 17.5785 78.3302 17.8992C78.6771 18.2466 79.0234 18.5656 79.3965 18.9131C79.5834 19.0726 79.8767 19.3392 80.0368 19.5796C80.1706 19.7128 80.2504 19.8985 80.2504 20.0854V20.1383C80.4105 20.0854 80.5432 20.0586 80.7032 20.0324C81.3742 19.8759 82.0504 19.7423 82.7305 19.632C82.7305 19.4189 82.5967 19.2321 82.4639 19.0994C81.7172 18.299 78.8377 16.2729 77.7976 16.2467C77.6899 16.2467 77.2901 16.2467 77.1573 16.3265ZM82.4907 16.7525C82.5175 17.0721 83.344 17.9533 83.5576 18.1669C83.8783 18.4859 84.1973 18.7798 84.518 19.0994C84.5977 19.1791 84.7048 19.26 84.8387 19.3659C85.692 19.313 86.5191 19.2862 87.2915 19.2862C86.572 18.5668 83.9854 16.7263 83.025 16.7001C82.9174 16.6733 82.5972 16.7001 82.4907 16.7531V16.7525Z" fill="#F26B21"/>
</svg>
